<svg width="1584" height="396" viewBox="0 0 1584 396" fill="none" xmlns="http://www.w3.org/2000/svg">
  <title>LittleSeed Money LinkedIn profile cover</title>
  <defs>
    <radialGradient id="rightGlow" cx="0" cy="0" r="1" gradientUnits="userSpaceOnUse" gradientTransform="translate(1450 70) rotate(145) scale(680 430)">
      <stop stop-color="#D3DDC3"/>
      <stop offset="1" stop-color="#FDFAF4" stop-opacity="0"/>
    </radialGradient>
    <linearGradient id="leftFade" x1="0" y1="198" x2="590" y2="198" gradientUnits="userSpaceOnUse">
      <stop stop-color="#F8F0DF" stop-opacity=".62"/>
      <stop offset="1" stop-color="#FDFAF4" stop-opacity="0"/>
    </linearGradient>
  </defs>

  <rect width="1584" height="396" fill="#FDFAF4"/>
  <rect width="1584" height="396" fill="url(#rightGlow)"/>
  <rect width="650" height="396" fill="url(#leftFade)"/>

  <!-- Keep the left side open for LinkedIn's profile-photo overlay. -->
  <g transform="translate(565 59) scale(.14)">
    <path d="M256 416V202" stroke="#4F6D38" stroke-width="28" stroke-linecap="round"/>
    <path d="M256 247C189 247 139 208 122 135C189 124 250 158 256 247Z" fill="#5C7D42"/>
    <path d="M256 303C334 303 390 258 407 174C323 163 262 213 256 303Z" fill="#4F6D38"/>
    <path d="M155 416H357" stroke="#4F6D38" stroke-width="28" stroke-linecap="round"/>
  </g>
  <text x="650" y="109" fill="#162013" font-family="Avenir Next, Avenir, Segoe UI, Helvetica, Arial, sans-serif" font-size="30" font-weight="650">LittleSeed Money</text>

  <text x="565" y="218" fill="#162013" font-family="Georgia, Times New Roman, serif" font-size="64" font-weight="500" letter-spacing="-1.5">Small steps.</text>
  <text x="903" y="218" fill="#4F6D38" font-family="Georgia, Times New Roman, serif" font-size="64" font-weight="500" letter-spacing="-1.5">Wise growth.</text>

  <text x="568" y="282" fill="#344629" fill-opacity=".74" font-family="Avenir Next, Avenir, Segoe UI, Helvetica, Arial, sans-serif" font-size="23">Clearer financial decisions, grounded in evidence.</text>

  <circle cx="1390" cy="198" r="77" fill="#FFFFFF" fill-opacity=".7"/>
  <circle cx="1390" cy="198" r="107" stroke="#4F6D38" stroke-opacity=".12" stroke-width="2"/>
  <circle cx="1390" cy="198" r="140" stroke="#4F6D38" stroke-opacity=".08" stroke-width="2"/>
  <g transform="translate(1313 121) scale(.3)">
    <path d="M256 416V202" stroke="#4F6D38" stroke-width="28" stroke-linecap="round"/>
    <path d="M256 247C189 247 139 208 122 135C189 124 250 158 256 247Z" fill="#5C7D42"/>
    <path d="M256 303C334 303 390 258 407 174C323 163 262 213 256 303Z" fill="#4F6D38"/>
    <path d="M155 416H357" stroke="#4F6D38" stroke-width="28" stroke-linecap="round"/>
  </g>
</svg>
