<svg width="1200" height="630" viewBox="0 0 1200 630" fill="none" xmlns="http://www.w3.org/2000/svg">
  <title>LittleSeed Money social sharing card</title>
  <defs>
    <radialGradient id="glow" cx="0" cy="0" r="1" gradientUnits="userSpaceOnUse" gradientTransform="translate(1050 150) rotate(135) scale(480)">
      <stop stop-color="#D3DDC3" stop-opacity=".95"/>
      <stop offset="1" stop-color="#FDFAF4" stop-opacity="0"/>
    </radialGradient>
  </defs>
  <rect width="1200" height="630" fill="#FDFAF4"/>
  <rect width="1200" height="630" fill="url(#glow)"/>
  <g transform="translate(74 61) scale(.19)">
    <path d="M256 416V202" stroke="#4F6D38" stroke-width="28" stroke-linecap="round"/>
    <path d="M256 247C189 247 139 208 122 135C189 124 250 158 256 247Z" fill="#5C7D42"/>
    <path d="M256 303C334 303 390 258 407 174C323 163 262 213 256 303Z" fill="#4F6D38"/>
    <path d="M155 416H357" stroke="#4F6D38" stroke-width="28" stroke-linecap="round"/>
  </g>
  <text x="178" y="119" fill="#162013" font-family="Avenir Next, Avenir, Segoe UI, Helvetica, Arial, sans-serif" font-size="32" font-weight="650">LittleSeed Money</text>
  <text x="72" y="305" fill="#162013" font-family="Georgia, Times New Roman, serif" font-size="82" font-weight="500" letter-spacing="-2">Small steps.</text>
  <text x="72" y="398" fill="#4F6D38" font-family="Georgia, Times New Roman, serif" font-size="82" font-weight="500" letter-spacing="-2">Wise growth.</text>
  <text x="75" y="473" fill="#344629" fill-opacity=".75" font-family="Avenir Next, Avenir, Segoe UI, Helvetica, Arial, sans-serif" font-size="25">Clearer financial decisions, grounded in evidence.</text>
  <circle cx="1005" cy="330" r="128" fill="#FFFFFF" fill-opacity=".78"/>
  <circle cx="1005" cy="330" r="184" stroke="#4F6D38" stroke-opacity=".14" stroke-width="2"/>
  <circle cx="1005" cy="330" r="234" stroke="#4F6D38" stroke-opacity=".1" stroke-width="2"/>
  <g transform="translate(877 202) scale(.5)">
    <path d="M256 416V202" stroke="#4F6D38" stroke-width="28" stroke-linecap="round"/>
    <path d="M256 247C189 247 139 208 122 135C189 124 250 158 256 247Z" fill="#5C7D42"/>
    <path d="M256 303C334 303 390 258 407 174C323 163 262 213 256 303Z" fill="#4F6D38"/>
    <path d="M155 416H357" stroke="#4F6D38" stroke-width="28" stroke-linecap="round"/>
  </g>
</svg>
